<svg width="16" height="16" viewBox="0 0 16 16" fill="none" xmlns="http://www.w3.org/2000/svg">
<path d="M8.00038 7.02786V4.91675H2.44482V14.4167H13.5559V7.02786H8.00038ZM4.66705 13.3612H3.55594V12.3056H4.66705V13.3612ZM4.66705 11.2501H3.55594V10.1945H4.66705V11.2501ZM4.66705 9.13897H3.55594V8.08342H4.66705V9.13897ZM4.66705 7.02786H3.55594V5.9723H4.66705V7.02786ZM6.88927 13.3612H5.77816V12.3056H6.88927V13.3612ZM6.88927 11.2501H5.77816V10.1945H6.88927V11.2501ZM6.88927 9.13897H5.77816V8.08342H6.88927V9.13897ZM6.88927 7.02786H5.77816V5.9723H6.88927V7.02786ZM12.4448 13.3612H8.00038V12.3056H9.11149V11.2501H8.00038V10.1945H9.11149V9.13897H8.00038V8.08342H12.4448V13.3612ZM11.3337 9.13897H10.2226V10.1945H11.3337V9.13897ZM11.3337 11.2501H10.2226V12.3056H11.3337V11.2501Z" fill="#FECEA8"/>
</svg>
