<svg width="24" height="24" viewBox="0 0 24 24" fill="none" xmlns="http://www.w3.org/2000/svg">
<path d="M3.66675 15.7502C3.66675 18.2835 5.71675 20.3335 8.25008 20.3335C10.7834 20.3335 12.8334 18.2835 12.8334 15.7502V10.3335H3.66675V15.7502ZM8.25008 17.4168C7.10008 17.4168 6.16675 16.8585 6.16675 16.1668H10.3334C10.3334 16.8585 9.40008 17.4168 8.25008 17.4168ZM10.3334 12.8335C10.7917 12.8335 11.1667 13.2085 11.1667 13.6668C11.1667 14.1252 10.7917 14.5002 10.3334 14.5002C9.87508 14.5002 9.50008 14.1252 9.50008 13.6668C9.50008 13.2085 9.87508 12.8335 10.3334 12.8335ZM6.16675 12.8335C6.62508 12.8335 7.00008 13.2085 7.00008 13.6668C7.00008 14.1252 6.62508 14.5002 6.16675 14.5002C5.70841 14.5002 5.33341 14.1252 5.33341 13.6668C5.33341 13.2085 5.70841 12.8335 6.16675 12.8335Z" fill="#FECEA8"/>
<path d="M11.1667 4.5V9.5H13.6667V11.5833C13.6667 10.8917 14.6001 10.3333 15.7501 10.3333C16.9001 10.3333 17.8334 10.8917 17.8334 11.5833H13.6667V13.6667V13.9917C14.2917 14.3083 15.0001 14.5 15.7501 14.5C18.2834 14.5 20.3334 12.45 20.3334 9.91667V4.5H11.1667ZM13.6667 8.73333C13.2084 8.73333 12.8334 8.35833 12.8334 7.9C12.8334 7.44167 13.2084 7.06667 13.6667 7.06667C14.1251 7.06667 14.5001 7.44167 14.5001 7.9C14.5001 8.36667 14.1251 8.73333 13.6667 8.73333ZM17.8334 8.73333C17.3751 8.73333 17.0001 8.35833 17.0001 7.9C17.0001 7.44167 17.3751 7.06667 17.8334 7.06667C18.2917 7.06667 18.6667 7.44167 18.6667 7.9C18.6667 8.36667 18.2917 8.73333 17.8334 8.73333Z" fill="#FECEA8"/>
</svg>
