<svg width="97" height="88" viewBox="0 0 97 88" fill="none" xmlns="http://www.w3.org/2000/svg">
<path d="M14.8188 57.7498C14.8188 67.0387 23.1043 74.5553 33.3432 74.5553C43.582 74.5553 51.8675 67.0387 51.8675 57.7498V37.8887H14.8188V57.7498ZM33.3432 63.8609C28.6952 63.8609 24.923 61.8137 24.923 59.2776H41.7633C41.7633 61.8137 37.9911 63.8609 33.3432 63.8609ZM41.7633 47.0553C43.6157 47.0553 45.1314 48.4303 45.1314 50.1109C45.1314 51.7915 43.6157 53.1665 41.7633 53.1665C39.9109 53.1665 38.3952 51.7915 38.3952 50.1109C38.3952 48.4303 39.9109 47.0553 41.7633 47.0553ZM24.923 47.0553C26.7754 47.0553 28.2911 48.4303 28.2911 50.1109C28.2911 51.7915 26.7754 53.1665 24.923 53.1665C23.0706 53.1665 21.555 51.7915 21.555 50.1109C21.555 48.4303 23.0706 47.0553 24.923 47.0553Z" fill="#FECEA8"/>
<path d="M45.1313 16.5V34.8333H55.2355V42.4722C55.2355 39.9361 59.0077 37.8889 63.6557 37.8889C68.3036 37.8889 72.0758 39.9361 72.0758 42.4722H55.2355V50.1111V51.3028C57.7616 52.4639 60.6244 53.1667 63.6557 53.1667C73.8945 53.1667 82.18 45.65 82.18 36.3611V16.5H45.1313ZM55.2355 32.0222C53.3831 32.0222 51.8675 30.6472 51.8675 28.9667C51.8675 27.2861 53.3831 25.9111 55.2355 25.9111C57.0879 25.9111 58.6036 27.2861 58.6036 28.9667C58.6036 30.6778 57.0879 32.0222 55.2355 32.0222ZM72.0758 32.0222C70.2234 32.0222 68.7077 30.6472 68.7077 28.9667C68.7077 27.2861 70.2234 25.9111 72.0758 25.9111C73.9282 25.9111 75.4438 27.2861 75.4438 28.9667C75.4438 30.6778 73.9282 32.0222 72.0758 32.0222Z" fill="#FECEA8"/>
</svg>
