<svg width="24" height="24" viewBox="0 0 24 24" fill="none" xmlns="http://www.w3.org/2000/svg">
<path d="M18.75 5.25H5.25C4.425 5.25 3.75 5.925 3.75 6.75V9H5.25V6.75H18.75V17.25H13.5V18.75H18.75C19.575 18.75 20.25 18.075 20.25 17.25V6.75C20.25 5.925 19.575 5.25 18.75 5.25ZM3.75 16.5V18.75H6C6 17.505 4.995 16.5 3.75 16.5ZM3.75 13.5V15C5.82 15 7.5 16.68 7.5 18.75H9C9 15.8475 6.6525 13.5 3.75 13.5ZM3.75 10.5V12C7.4775 12 10.5 15.0225 10.5 18.75H12C12 14.19 8.3025 10.5 3.75 10.5Z" fill="#FECEA8"/>
</svg>
