<svg width="98" height="88" viewBox="0 0 98 88" fill="none" xmlns="http://www.w3.org/2000/svg">
<path d="M72.8194 22.6111V65.3889H25.1806V22.6111H72.8194ZM76.5625 16.5H21.4375C19.7361 16.5 18.375 17.7222 18.375 19.25V68.75C18.375 69.9722 19.7361 71.5 21.4375 71.5H76.5625C77.9236 71.5 79.625 69.9722 79.625 68.75V19.25C79.625 17.7222 77.9236 16.5 76.5625 16.5V16.5ZM45.5972 28.7222H66.0139V34.8333H45.5972V28.7222ZM45.5972 40.9444H66.0139V47.0556H45.5972V40.9444ZM45.5972 53.1667H66.0139V59.2778H45.5972V53.1667ZM31.9861 28.7222H38.7917V34.8333H31.9861V28.7222ZM31.9861 40.9444H38.7917V47.0556H31.9861V40.9444ZM31.9861 53.1667H38.7917V59.2778H31.9861V53.1667Z" fill="#FECEA8"/>
</svg>
