<svg width="97" height="88" viewBox="0 0 97 88" fill="none" xmlns="http://www.w3.org/2000/svg">
<path d="M78.813 16.5H18.188C14.4832 16.5 11.4519 19.25 11.4519 22.6111V31.7778H18.188V22.6111H78.813V65.3889H55.2366V71.5H78.813C82.5179 71.5 85.5491 68.75 85.5491 65.3889V22.6111C85.5491 19.25 82.5179 16.5 78.813 16.5ZM11.4519 62.3333V71.5H21.5561C21.5561 66.4278 17.0429 62.3333 11.4519 62.3333ZM11.4519 50.1111V56.2222C20.7477 56.2222 28.2922 63.0667 28.2922 71.5H35.0283C35.0283 59.675 24.4863 50.1111 11.4519 50.1111ZM11.4519 37.8889V44C28.1911 44 41.7644 56.3139 41.7644 71.5H48.5005C48.5005 52.9222 31.896 37.8889 11.4519 37.8889Z" fill="#FECEA8"/>
</svg>
